<svg width="192" height="96" viewBox="0 0 192 96" fill="none" xmlns="http://www.w3.org/2000/svg">
<path d="M191.196 13.3513C189.355 10.1379 187.229 7.89838 184.152 5.85198C182.813 4.96146 181.564 7.119 182.895 8.00257C184.133 8.82363 185.181 9.69331 186.115 10.6547C169.497 2.86506 150.901 -4.19381 133.323 4.89339C126.104 8.62497 119.934 14.5891 116.128 21.7827C111.275 30.9561 111.075 41.4395 109.158 51.4214C105.085 72.6327 88.2897 88.3078 67.3257 92.8493C43.5484 97.9994 19.3028 87.8424 1.5466 72.3368C1.0423 71.8964 0.303211 72.6258 0.807515 73.0759C28.2178 97.5076 73.0731 107.089 99.9332 76.1948C105.406 69.9 109.058 62.4994 110.895 54.3791C113.415 43.2414 113.095 31.3339 119.137 21.2437C124.751 11.8689 134.708 5.05455 145.504 3.32352C159.273 1.11597 172.661 6.98146 184.872 12.7761C180.961 14.496 176.974 15.7047 172.702 16.4368C171.344 16.6688 171.643 19.0306 173.031 18.8666C173.141 18.8541 173.249 18.8333 173.359 18.8208C173.37 18.8194 173.378 18.818 173.389 18.8152C179.208 18.1053 184.847 16.9245 190.452 15.1781C191.219 14.9364 191.604 14.0653 191.196 13.3513Z" fill="white"/>
</svg>
